<svg id="eKwdghqBJI61" xmlns="http://www.w3.org/2000/svg" xmlns:xlink="http://www.w3.org/1999/xlink" viewBox="0 0 300 300" shape-rendering="geometricPrecision" text-rendering="geometricPrecision"><defs><linearGradient id="eKwdghqBJI62-stroke" x1="0.084066" y1="0.511818" x2="0.80969" y2="0.202886" spreadMethod="pad" gradientUnits="objectBoundingBox" gradientTransform="translate(0 0)"><stop id="eKwdghqBJI62-stroke-0" offset="0%" stop-color="#3929e4"/><stop id="eKwdghqBJI62-stroke-1" offset="25%" stop-color="#9349c9"/><stop id="eKwdghqBJI62-stroke-2" offset="100%" stop-color="#e3c791"/></linearGradient></defs><path d="M19.8293,26.297976q-2.735742-2.40386,13.255598-10.832581c15.99134-8.428721,26.844009-2.033816,10.834822,26.629578s-47.73469,93.992133-10.834822,65.557538s49.220965-75.035736,90.846333-65.557538s89.674258,116.989632,109.234733,107.905026s19.535587-20.661746,4.891439-30.931828C210.560973,99.78466,64.811059,192.710597,64.811059,192.710597c-36.560339,24.096587-30.806678,36.065293,39.997109,27.676378c107.748883-18.994758,157.944705-25.599799,133.249235,0s-47.810074,42.449261-25.472275,44.765072q74.751527-6.053295,64.723035,8.104575" transform="translate(.000004 0.000001)" fill="none" stroke="url(#eKwdghqBJI62-stroke)" stroke-width="2"/></svg>
